PathFileType	4	(X/Y/Z)	30_2_10_p0_0-273.trc
DataRate	CameraRate	NumFrames	NumMarkers	Units	OrigDataRate	OrigDataStartFrame	OrigNumFrames
59.0	59.0	5	27	m	59.0	68	274
Frame#	Time	RHip			RKnee			RAnkle			RBigToe			RSmallToe			RHeel			LHip			LKnee			LAnkle			LBigToe			LSmallToe			LHeel			Neck			Head			Nose			RShoulder			RElbow			RWrist			RThumb			RIndex			RPinky			LShoulder			LElbow			LWrist			LThumb			LIndex			LPinky			
		X1	Y1	Z1	X2	Y2	Z2	X3	Y3	Z3	X4	Y4	Z4	X5	Y5	Z5	X6	Y6	Z6	X7	Y7	Z7	X8	Y8	Z8	X9	Y9	Z9	X10	Y10	Z10	X11	Y11	Z11	X12	Y12	Z12	X13	Y13	Z13	X14	Y14	Z14	X15	Y15	Z15	X16	Y16	Z16	X17	Y17	Z17	X18	Y18	Z18	X19	Y19	Z19	X20	Y20	Z20	X21	Y21	Z21	X22	Y22	Z22	X23	Y23	Z23	X24	Y24	Z24	X25	Y25	Z25	X26	Y26	Z26	X27	Y27	Z27	
68	1.152542372881356	0.29231840565889167	0.46022395847973435	0.9952178347806606	0.306258679197235	0.5271994487295302	1.406010787463496	0.2983432092832752	0.5323666967539303	1.769485773013521	0.26460633407283857	0.3517825844883777	1.7911064145889666	0.3196032087227359	0.3485294398512063	1.7792842865703349	0.27411411844807654	0.6156060749395121	1.8433317152513586	0.09167743039180155	0.44481010964911377	0.9910885093240239	0.06656131448502496	0.5213821008310218	1.403346668111882	0.06870470312420064	0.5296368704225021	1.7715896808577516	0.08276741038429876	0.326685878714038	1.7791419210396289	0.03262104044599914	0.3938144980435469	1.8074591014146486	0.08413210273596221	0.5509487479856869	1.81456250158911	0.24438313595119318	0.44012690749772937	0.5207988739947403	0.2748850553367781	0.44572678043252456	0.2732802584270769	0.24241001750921523	0.358010271163211	0.39241345020280843	0.38003353348256175	0.45503430793648897	0.6216734255495833	0.3918913824593244	0.4296866131495267	0.8677656386106827	0.23359874568188685	0.3572149192509727	0.9886012275910715	0.14274572814767672	0.3520449263331972	1.0633701701150626	0.14176239098342966	0.35132658366070774	1.0671017708561779	0.15859723855635563	0.3358778524941515	1.085460989611805	0.08845861774433111	0.44751317199025104	0.5647970682125785	0.02268909131736296	0.4063181567601209	0.7892798610605753	0.1314816225183042	0.30620557139361493	0.9482588511068025	0.18738442267628866	0.3280943848653325	1.0425296357197038	0.17964868225333622	0.32691402455941093	1.0585888445671543	0.14787888764516552	0.32744834839291864	1.065313316036585
69	1.1694915254237288	0.2918306131425657	0.46021245362404	0.9990671576199444	0.3055169558324733	0.5273865182210551	1.4106839094382575	0.2984243542174183	0.5323830811146597	1.769546171860831	0.26200140301545716	0.34214920572696694	1.7890573135257373	0.319474535930269	0.3480476320814374	1.7792940176852585	0.2731664737188335	0.6154305381236801	1.8495542972458727	0.09129915964660536	0.44595704689812327	0.9880042995378946	0.07018080558371978	0.5241829236581315	1.3999307454636896	0.06870737320956755	0.5300447958906858	1.7714353023921319	0.08276557121339867	0.3269194103337723	1.7791210009962306	0.03261097471613235	0.3939494793708649	1.8074014867119517	0.08415896007238143	0.5510538177179972	1.81450362381646	0.24835831830823538	0.44189911749998567	0.5210200365675285	0.27846680873445945	0.43417050442240746	0.27182098827115253	0.24935313337778603	0.347024228232418	0.3868302678279312	0.3841355114913225	0.4659973850747817	0.6241538529310985	0.3922778690881649	0.42995098445888086	0.8751380935373989	0.23690767631516949	0.34401446657695384	0.9835686562122752	0.1429450437292735	0.35155016997877464	1.0633133466962341	0.14247006089140307	0.35073013172155215	1.0636156711059181	0.15933104002057172	0.3361034773447665	1.0816273618984642	0.0885317168180296	0.4474713977616755	0.5647947636477384	0.02309505338302233	0.39287330192562275	0.7855175619645659	0.13166600642350376	0.30608946674251886	0.9482749623640426	0.18870289569401116	0.3287633725091803	1.0472874808245836	0.1848866757200884	0.32816059216410826	1.0633947431192627	0.14809368614560747	0.3270497099587033	1.065216437462288
70	1.1864406779661016	0.29226288680122364	0.4601060912773831	0.9953330700516141	0.30587545164085755	0.5285884725606926	1.402403749278747	0.29849160287464527	0.5323999225891753	1.769622144338738	0.2661931819016939	0.3543022598185138	1.7974238635159525	0.319335708120473	0.34698133387496094	1.77955203067637	0.2794324050798912	0.6294579174409419	1.8518612864609232	0.09138263046284578	0.44558864172101487	0.9878886753725383	0.07041660146241425	0.5256918220570355	1.410224289651414	0.06872047307240609	0.5294553043110231	1.771662833790522	0.08186342742868785	0.3253492158599464	1.7735334186998102	0.03313013364548486	0.39244740329309813	1.810740158179384	0.0853540376838181	0.5526807572177206	1.820940262148388	0.2519959889433278	0.42832422712802454	0.518088216531047	0.28240200440715346	0.43392897594368296	0.27499725181451423	0.25009713420735014	0.34734114871723953	0.39005038770004274	0.3801781717925423	0.45521719505624664	0.6220376005765895	0.39287274868958466	0.4290533684502014	0.8758811619819867	0.2369534188554079	0.34402179782867803	0.9835729095191034	0.14278883153228122	0.3519427921947458	1.0634412500778279	0.1418907254207825	0.35125864464129425	1.0673117300041488	0.15954929023029268	0.336199350915983	1.082042207676088	0.09253194813675364	0.435553255057051	0.5621122534756932	0.026856235971807866	0.39365330335837606	0.7887292539491928	0.13170663691898227	0.30601390673161655	0.9482449500315626	0.1891283773926334	0.32795881542175487	1.0468635369482424	0.18510381539087314	0.3274343047810761	1.062836824550657	0.14803928635023936	0.3276553257147884	1.0653235663307794
71	1.2033898305084745	0.2930039545394578	0.46109680157531857	0.9999730520236666	0.30700954615569154	0.5299437774084946	1.4079537043694967	0.29830481692660704	0.532400636095288	1.7696028430642845	0.26616170673628736	0.35383258010454904	1.7970829614367603	0.3235171266636848	0.3587740174983203	1.7864489782515884	0.27305459153201694	0.6155884371272033	1.8496718676266524	0.09215589728883118	0.4465765005314268	0.992678067382039	0.07053864871382896	0.5257832019468318	1.410484008600773	0.06865826821992185	0.5291823021058395	1.7715980728392247	0.08181935720473867	0.3251129161574413	1.7735041284585906	0.03304460929162854	0.39222966911274243	1.8106837853799163	0.08527971050062376	0.5525204788805523	1.8211484515982015	0.2559183091470929	0.4301151506103301	0.5183223060624071	0.28265931308367526	0.43355662089932223	0.2782376162698643	0.2534335162456423	0.33533370094757836	0.3880861948806877	0.3844814098444731	0.466611771495659	0.6246161501069535	0.39329144616601847	0.4295786466999272	0.8832731095158212	0.23705121781320335	0.3436863132936239	0.9833816667893903	0.14301126001579142	0.3515777272817946	1.0633876220237233	0.1433369766841827	0.35177562881312535	1.0681722602770214	0.160371394337339	0.3368719839213155	1.0864244629945898	0.09664756970537135	0.4368104977093544	0.5619639103447805	0.02727481396071574	0.3938854742500392	0.7855846452491686	0.13518731924863855	0.31687595169123134	0.9487950354673764	0.1888093025650281	0.32843373495869327	1.0472322977173383	0.18489738348940463	0.3279621540001431	1.0633713082287415	0.1481556841746973	0.3274364807525139	1.0653512044252842
72	1.2203389830508475	0.293812641864481	0.4619066752119205	1.0045629896995063	0.3076844754801667	0.5296782206579688	1.403517609131331	0.29858315872602137	0.5322633837559041	1.769184713816533	0.26936550003171544	0.3574518763649148	1.7994650496686408	0.3237801262926798	0.35218035262913033	1.777198733679664	0.27343900847406394	0.6167435768311628	1.8396109742714253	0.10045385317014806	0.45875855190707626	0.996204679982882	0.07125460749331751	0.525886020241294	1.4066586217319046	0.0695048142667533	0.5322508339464004	1.774255246961846	0.08279346156011169	0.326278326442896	1.7792939086237032	0.031501954114014435	0.3938285483980371	1.812321541024795	0.0853349421363425	0.552718210028718	1.820704639473091	0.2560203541453801	0.430027036886555	0.5183058882963371	0.28667477071606584	0.43450014258278624	0.2780340089765915	0.26081543210484004	0.32406491170150414	0.38584556229098066	0.3844322488909094	0.46636085780067293	0.6245033968478756	0.3983228580784414	0.4422385599071001	0.8868311664818297	0.23712367317243338	0.3438550909895301	0.9836324330216059	0.15113576306319568	0.3389405571660056	1.0615898356672586	0.14260100435030998	0.3499273551741814	1.0704845429602992	0.16039297348607182	0.3369270570891537	1.0863442256723683	0.09679693308855769	0.43662769688592035	0.5617949764528175	0.027330992319911682	0.3940430607149895	0.7852457526589357	0.13216666554273648	0.3062945606259756	0.9450221499386185	0.1899513386519571	0.32901371428997367	1.047472156259357	0.18948045316266943	0.3284253133858407	1.0633023779944157	0.14812461445852884	0.3276235667131921	1.0654819165861085
